<svg xmlns="http://www.w3.org/2000/svg" width="227" height="44.33306502632802" viewBox="0 0 227 44.33306502632802" class="editor-view__logo-preview" data-v-8d8ae3dd="" data-v-b9d2a614=""><!----><svg id="name" viewBox="0 0 227.05599975585938 44.34400177001953" width="227" height="44.33306502632802" x="0" y="0" data-v-8d8ae3dd="" style="fill: rgb(201, 166, 123);"><rect x="0" y="0" width="100%" height="100%" fill="none" data-v-8d8ae3dd=""></rect><g data-v-8d8ae3dd=""><path xmlns="http://www.w3.org/2000/svg" d="M27.42 35.70L21.39 35.70Q18.31 30.22 14.72 24.89Q11.13 19.55 7.08 14.81L7.08 14.81L7.08 35.70L0 35.70L0 3.82L5.84 3.82Q7.36 5.34 9.20 7.54Q11.04 9.75 12.95 12.26Q14.86 14.77 16.74 17.46Q18.63 20.15 20.29 22.63L20.29 22.63L20.29 3.82L27.42 3.82L27.42 35.70ZM33.17 23.78L33.17 23.78Q33.17 20.56 34.15 18.15Q35.14 15.73 36.75 14.12Q38.36 12.51 40.46 11.68Q42.55 10.86 44.76 10.86L44.76 10.86Q49.91 10.86 52.90 14.01Q55.89 17.16 55.89 23.28L55.89 23.28Q55.89 23.87 55.84 24.59Q55.80 25.30 55.75 25.85L55.75 25.85L40.20 25.85Q40.43 27.97 42.18 29.21Q43.93 30.45 46.87 30.45L46.87 30.45Q48.76 30.45 50.58 30.11Q52.39 29.76 53.54 29.26L53.54 29.26L54.46 34.82Q53.91 35.10 52.99 35.37Q52.07 35.65 50.94 35.86Q49.82 36.06 48.53 36.20Q47.24 36.34 45.95 36.34L45.95 36.34Q42.69 36.34 40.27 35.37Q37.86 34.41 36.27 32.73Q34.68 31.05 33.92 28.75Q33.17 26.45 33.17 23.78ZM40.20 21.16L49.27 21.16Q49.22 20.29 48.97 19.46Q48.71 18.63 48.18 17.99Q47.66 17.34 46.85 16.93Q46.05 16.51 44.85 16.51L44.85 16.51Q43.70 16.51 42.87 16.90Q42.04 17.30 41.49 17.94Q40.94 18.58 40.64 19.43Q40.34 20.29 40.20 21.16L40.20 21.16ZM75.90 21.80L75.90 21.80Q74.98 25.30 73.94 28.75Q72.91 32.20 71.76 35.70L71.76 35.70L66.42 35.70Q65.60 33.76 64.63 31.10Q63.66 28.43 62.63 25.28Q61.59 22.13 60.51 18.61Q59.43 15.09 58.42 11.50L58.42 11.50L65.64 11.50Q66.01 13.16 66.45 15.11Q66.88 17.07 67.37 19.14Q67.85 21.21 68.38 23.30Q68.91 25.39 69.46 27.32L69.46 27.32Q70.06 25.30 70.63 23.18Q71.21 21.07 71.74 19.02Q72.27 16.97 72.75 15.06Q73.23 13.16 73.60 11.50L73.60 11.50L78.57 11.50Q78.94 13.16 79.40 15.06Q79.86 16.97 80.36 19.02Q80.87 21.07 81.42 23.18Q81.97 25.30 82.57 27.32L82.57 27.32Q83.12 25.39 83.67 23.30Q84.23 21.21 84.71 19.14Q85.19 17.07 85.63 15.11Q86.07 13.16 86.43 11.50L86.43 11.50L93.56 11.50Q92.55 15.09 91.47 18.61Q90.39 22.13 89.35 25.28Q88.32 28.43 87.33 31.10Q86.34 33.76 85.51 35.70L85.51 35.70L80.18 35.70Q79.03 32.20 77.92 28.75Q76.82 25.30 75.90 21.80ZM102.53 22.82L102.53 22.82Q102.53 28.57 107.18 28.57L107.18 28.57Q108.24 28.57 109.16 28.29Q110.08 28.01 110.72 27.65L110.72 27.65L110.72 16.70Q110.22 16.61 109.53 16.54Q108.84 16.47 107.92 16.47L107.92 16.47Q105.20 16.47 103.87 18.26Q102.53 20.06 102.53 22.82ZM117.58 12.33L117.58 32.66Q117.58 38.59 114.56 41.47Q111.55 44.34 105.25 44.34L105.25 44.34Q103.04 44.34 100.83 43.95Q98.62 43.56 96.74 42.92L96.74 42.92L97.93 37.17Q99.54 37.81 101.31 38.18Q103.09 38.55 105.34 38.55L105.34 38.55Q108.28 38.55 109.50 37.26Q110.72 35.97 110.72 33.95L110.72 33.95L110.72 33.07Q109.62 33.58 108.44 33.83Q107.27 34.09 105.89 34.09L105.89 34.09Q100.88 34.09 98.21 31.12Q95.54 28.15 95.54 22.82L95.54 22.82Q95.54 20.15 96.37 17.96Q97.20 15.78 98.78 14.21Q100.37 12.65 102.67 11.80Q104.97 10.95 107.87 10.95L107.87 10.95Q109.11 10.95 110.42 11.06Q111.73 11.18 113.02 11.36Q114.31 11.55 115.48 11.80Q116.66 12.05 117.58 12.33L117.58 12.33ZM122.87 23.78L122.87 23.78Q122.87 20.56 123.85 18.15Q124.84 15.73 126.45 14.12Q128.06 12.51 130.16 11.68Q132.25 10.86 134.46 10.86L134.46 10.86Q139.61 10.86 142.60 14.01Q145.59 17.16 145.59 23.28L145.59 23.28Q145.59 23.87 145.54 24.59Q145.50 25.30 145.45 25.85L145.45 25.85L129.90 25.85Q130.13 27.97 131.88 29.21Q133.63 30.45 136.57 30.45L136.57 30.45Q138.46 30.45 140.28 30.11Q142.09 29.76 143.24 29.26L143.24 29.26L144.16 34.82Q143.61 35.10 142.69 35.37Q141.77 35.65 140.64 35.86Q139.52 36.06 138.23 36.20Q136.94 36.34 135.65 36.34L135.65 36.34Q132.39 36.34 129.97 35.37Q127.56 34.41 125.97 32.73Q124.38 31.05 123.62 28.75Q122.87 26.45 122.87 23.78ZM129.90 21.16L138.97 21.16Q138.92 20.29 138.67 19.46Q138.41 18.63 137.88 17.99Q137.36 17.34 136.55 16.93Q135.75 16.51 134.55 16.51L134.55 16.51Q133.40 16.51 132.57 16.90Q131.74 17.30 131.19 17.94Q130.64 18.58 130.34 19.43Q130.04 20.29 129.90 21.16L129.90 21.16ZM150.88 35.70L150.88 12.33Q152.63 11.82 155.39 11.38Q158.15 10.95 161.18 10.95L161.18 10.95Q164.27 10.95 166.31 11.75Q168.36 12.56 169.56 14.03Q170.75 15.50 171.26 17.53Q171.76 19.55 171.76 22.03L171.76 22.03L171.76 35.70L164.91 35.70L164.91 22.86Q164.91 19.55 164.04 18.17Q163.16 16.79 160.77 16.79L160.77 16.79Q160.03 16.79 159.21 16.86Q158.38 16.93 157.73 17.02L157.73 17.02L157.73 35.70L150.88 35.70ZM188.46 0L188.46 0Q190.39 0 192.00 0.39Q193.61 0.78 194.49 1.15L194.49 1.15L193.15 6.62Q192.23 6.21 191.15 6.00Q190.07 5.80 189.15 5.80L189.15 5.80Q187.91 5.80 187.06 6.14Q186.21 6.49 185.72 7.08Q185.24 7.68 185.03 8.51Q184.83 9.34 184.83 10.30L184.83 10.30L184.83 11.50L193.29 11.50L193.29 17.20L184.83 17.20L184.83 35.70L177.97 35.70L177.97 10.21Q177.97 5.52 180.62 2.76Q183.26 0 188.46 0ZM204.79 11.50L204.79 35.70L197.94 35.70L197.94 11.50L204.79 11.50ZM205.44 4.51L205.44 4.51Q205.44 6.39 204.22 7.47Q203.00 8.56 201.34 8.56L201.34 8.56Q199.69 8.56 198.47 7.47Q197.25 6.39 197.25 4.51L197.25 4.51Q197.25 2.62 198.47 1.54Q199.69 0.46 201.34 0.46L201.34 0.46Q203.00 0.46 204.22 1.54Q205.44 2.62 205.44 4.51ZM211.00 25.81L211.00 5.47L217.86 4.37L217.86 11.50L226.09 11.50L226.09 17.20L217.86 17.20L217.86 25.71Q217.86 27.88 218.62 29.16Q219.37 30.45 221.67 30.45L221.67 30.45Q222.78 30.45 223.95 30.24Q225.12 30.04 226.09 29.67L226.09 29.67L227.06 35.01Q225.81 35.51 224.30 35.88Q222.78 36.25 220.57 36.25L220.57 36.25Q217.76 36.25 215.92 35.49Q214.08 34.73 212.98 33.37Q211.88 32.02 211.44 30.08Q211.00 28.15 211.00 25.81L211.00 25.81Z"></path></g></svg><!----></svg>